<svg xmlns="http://www.w3.org/2000/svg" version="1.1" xmlns:xlink="http://www.w3.org/1999/xlink" xmlns:svgjs="http://svgjs.dev/svgjs" width="1500" height="1500" viewBox="0 0 1500 1500"><rect width="1500" height="1500" fill="#ffffff"></rect><g transform="matrix(0.6666666666666666,0,0,0.6666666666666666,253.7770820038569,547.0613489318735)"><svg viewBox="0 0 397 161" data-background-color="#692729" preserveAspectRatio="xMidYMid meet" height="608" width="1500" xmlns="http://www.w3.org/2000/svg" xmlns:xlink="http://www.w3.org/1999/xlink"><g id="tight-bounds" transform="matrix(1,0,0,1,1.7250182004632393,0.1080332778825408)"><svg viewBox="0 0 395.52 160.78393344423492" height="160.78393344423492" width="395.52"><g><svg viewBox="0 0 494.4494036002236 201" height="160.78393344423492" width="395.52"><g><rect width="8.413199687423143" height="201" x="190.84275259921745" y="0" fill="#000000" opacity="1" stroke-width="0" stroke="transparent" fill-opacity="1" class="rect-yte-0" data-fill-palette-color="primary" rx="1%" id="yte-0" data-palette-color="#f2cebe"></rect></g><g transform="matrix(1,0,0,1,221.28003523801007,0.4999999999999858)"><svg viewBox="0 0 273.16936836221356 200.00000000000003" height="200.00000000000003" width="273.16936836221356"><g id="textblocktransform"><svg viewBox="0 0 273.16936836221356 200.00000000000003" height="200.00000000000003" width="273.16936836221356" id="textblock"><g><svg viewBox="0 0 273.16936836221356 200.00000000000003" height="200.00000000000003" width="273.16936836221356"><g transform="matrix(1,0,0,1,0,0)"><svg width="273.16936836221356" viewBox="3.7799999999999994 -33.13 122.16999999999999 78.41" height="200.00000000000003" data-palette-color="#f2cebe"><svg></svg><svg></svg><g class="wordmark-text-0" data-fill-palette-color="primary" id="text-0"><path d="M7.93 0h-4.15v-31.95h4.15zM22.6-13.38h-16.47v-3.47h16.47zM22.98-28.48h-18v-3.47h18zM27.7-24.4h4.03v15.18c0 1.28 0.177 2.4 0.53 3.36 0.36 0.96 0.95 1.7 1.77 2.22 0.813 0.527 1.913 0.79 3.3 0.79v0c1.3 0 2.417-0.237 3.35-0.71 0.933-0.48 1.693-1.137 2.28-1.97 0.593-0.833 1-1.773 1.22-2.82v0l0.72 2.87h-0.87c-0.253 1.1-0.713 2.107-1.38 3.02-0.667 0.907-1.563 1.63-2.69 2.17-1.12 0.547-2.507 0.82-4.16 0.82v0c-1.913 0-3.467-0.363-4.66-1.09-1.193-0.727-2.063-1.787-2.61-3.18-0.553-1.393-0.83-3.073-0.83-5.04v0zM44-24.4h4.05v24.4h-4.05l0.18-5.85-0.18-0.25zM75.03 0h-4.05v-15.18c0-1.313-0.18-2.443-0.54-3.39-0.36-0.953-0.943-1.693-1.75-2.22-0.807-0.527-1.91-0.79-3.31-0.79v0c-1.287 0-2.4 0.243-3.34 0.73-0.94 0.48-1.703 1.133-2.29 1.96-0.58 0.827-0.987 1.767-1.22 2.82v0l-0.73-2.88h0.88c0.267-1.1 0.733-2.103 1.4-3.01 0.667-0.913 1.56-1.64 2.68-2.18 1.127-0.54 2.507-0.81 4.14-0.81v0c1.933 0 3.497 0.367 4.69 1.1 1.193 0.733 2.063 1.787 2.61 3.16 0.553 1.373 0.83 3.06 0.83 5.06v0zM58.7 0h-4.05v-24.4h4.05l-0.17 5.85 0.17 0.23zM102 0h-4.85l-9.65-11.38h-2.57v-3.15h2.57l9.25-9.87h4.8l-11.07 11.77v-0.97zM85.33 0h-4.03v-33.13h4.03zM114.28-3.78h2.32l-2.12 0.93 7.3-21.55h4.17l-11.47 33h-4.1l3.85-11.15 1.77 1.55h-4.6l-7.97-23.4h4.2z" fill="#000000" fill-rule="nonzero" stroke="none" stroke-width="1" stroke-linecap="butt" stroke-linejoin="miter" stroke-miterlimit="10" stroke-dasharray="" stroke-dashoffset="0" font-family="none" font-weight="none" font-size="none" text-anchor="none" style="mix-blend-mode: normal" data-fill-palette-color="primary" opacity="1"></path><path transform="translate(0,44.73)" d="M17.05 0h-10.45v-3.43h10.05c2.167 0 3.703-0.46 4.61-1.38 0.913-0.927 1.37-2.207 1.37-3.84v0-0.9c0-1.667-0.463-2.96-1.39-3.88-0.927-0.913-2.54-1.37-4.84-1.37v0h-9.77v-3.27h9.72c2.053 0 3.517-0.447 4.39-1.34 0.873-0.893 1.31-2.133 1.31-3.72v0-0.45c0-1.567-0.42-2.787-1.26-3.66-0.84-0.873-2.33-1.31-4.47-1.31v0h-9.79v-3.4h10.17c3.4 0 5.833 0.673 7.3 2.02 1.467 1.353 2.2 3.253 2.2 5.7v0 0.5c0 1.953-0.467 3.487-1.4 4.6-0.933 1.12-2.383 1.787-4.35 2v0l-0.02 0.15c2.247 0.333 3.88 1.117 4.9 2.35 1.013 1.233 1.52 2.953 1.52 5.16v0 1.02c0 2.647-0.767 4.717-2.3 6.21-1.533 1.493-4.033 2.24-7.5 2.24zM7.88 0h-4.1v-31.95h4.1zM36.48 0h-4.06v-24.4h4.06zM34.45-28.4v0c-0.833 0-1.453-0.22-1.86-0.66-0.407-0.447-0.61-1.053-0.61-1.82v0-0.12c0-0.787 0.203-1.397 0.61-1.83 0.407-0.433 1.027-0.65 1.86-0.65v0c0.833 0 1.46 0.217 1.88 0.65 0.413 0.433 0.62 1.043 0.62 1.83v0 0.12c0 0.787-0.207 1.397-0.62 1.83-0.42 0.433-1.047 0.65-1.88 0.65zM52.05 0.5v0c-1.88 0-3.397-0.283-4.55-0.85-1.153-0.567-1.987-1.427-2.5-2.58-0.513-1.147-0.77-2.58-0.77-4.3v0-15.4h4v14.93c0 1.6 0.367 2.78 1.1 3.54 0.727 0.753 1.957 1.13 3.69 1.13v0c0.987 0 1.933-0.107 2.84-0.32 0.913-0.22 1.767-0.53 2.56-0.93v0l-0.37 3.48c-0.78 0.4-1.697 0.717-2.75 0.95-1.047 0.233-2.13 0.35-3.25 0.35zM57.8-20.8h-17.57v-3.25h17.94zM48.13-23.65h-3.88l-0.02-6.85 4.07-0.53zM72.55 0.55v0c-3.713 0-6.513-0.91-8.4-2.73-1.88-1.813-2.82-4.413-2.82-7.8v0-4.35c0-3.433 0.873-6.077 2.62-7.93 1.753-1.86 4.313-2.79 7.68-2.79v0c2.267 0 4.157 0.42 5.67 1.26 1.52 0.84 2.663 2.037 3.43 3.59 0.767 1.547 1.15 3.397 1.15 5.55v0 0.9c0 0.533-0.023 1.067-0.07 1.6-0.04 0.533-0.093 1.057-0.16 1.57v0h-3.72c0.033-0.8 0.053-1.557 0.06-2.27 0.007-0.72 0.01-1.38 0.01-1.98v0c0-1.48-0.237-2.733-0.71-3.76-0.473-1.027-1.183-1.81-2.13-2.35-0.94-0.54-2.117-0.81-3.53-0.81v0c-2.1 0-3.677 0.607-4.73 1.82-1.047 1.22-1.57 2.963-1.57 5.23v0 2.32l0.02 0.5v2.33c0 1.013 0.15 1.93 0.45 2.75 0.3 0.813 0.77 1.517 1.41 2.11 0.647 0.593 1.463 1.043 2.45 1.35 0.993 0.307 2.173 0.46 3.54 0.46v0c1.587 0 3.063-0.207 4.43-0.62 1.367-0.42 2.65-0.987 3.85-1.7v0l-0.38 3.5c-1.08 0.68-2.337 1.227-3.77 1.64-1.433 0.407-3.027 0.61-4.78 0.61zM80.8-10.58h-17.35v-3.05h17.35z" fill="#000000" fill-rule="nonzero" stroke="none" stroke-width="1" stroke-linecap="butt" stroke-linejoin="miter" stroke-miterlimit="10" stroke-dasharray="" stroke-dashoffset="0" font-family="none" font-weight="none" font-size="none" text-anchor="none" style="mix-blend-mode: normal" data-fill-palette-color="primary" opacity="1"></path></g></svg></g></svg></g></svg></g></svg></g><g transform="matrix(1,0,0,1,0,32.288715508188375)"><svg viewBox="0 0 168.81866964784797 136.42256898362325" height="136.42256898362325" width="168.81866964784797"><g><svg xmlns="http://www.w3.org/2000/svg" xmlns:xlink="http://www.w3.org/1999/xlink" version="1.1" x="0" y="0" viewBox="2.210645211560571 14.516293233322473 95.31443224220024 77.02370676667753" enable-background="new 0 0 100 100" xml:space="preserve" height="136.42256898362325" width="168.81866964784797" class="icon-icon-0" data-fill-palette-color="accent" id="icon-0"><g fill="#eae4d6" data-fill-palette-color="accent"><path fill="#000000" d="M40.181 57.492C39.882 57.492 39.58 57.401 39.32 57.213A7.5 7.5 0 0 1 36.23 51.161 7.5 7.5 0 0 1 39.283 45.136 1.47 1.47 0 0 1 41.024 47.505 4.5 4.5 0 0 0 39.17 51.161C39.17 52.609 39.871 53.981 41.045 54.832A1.47 1.47 0 0 1 40.181 57.492" data-fill-palette-color="accent"></path></g><g fill="#eae4d6" data-fill-palette-color="accent"><path fill="#000000" d="M57.472 57.492C57.173 57.492 56.871 57.401 56.611 57.213A7.5 7.5 0 0 1 53.521 51.161 7.5 7.5 0 0 1 56.574 45.136 1.47 1.47 0 0 1 58.315 47.505 4.5 4.5 0 0 0 56.461 51.161C56.461 52.609 57.162 53.981 58.336 54.832A1.47 1.47 0 0 1 57.472 57.492" data-fill-palette-color="accent"></path></g><g fill="#eae4d6" data-fill-palette-color="accent"><path fill="#000000" d="M40.729 47.325A1.47 1.47 0 0 1 39.857 44.67 4.5 4.5 0 0 0 41.711 41.014C41.711 39.566 41.01 38.194 39.836 37.343A1.47 1.47 0 0 1 41.561 34.962 7.5 7.5 0 0 1 44.651 41.014 7.5 7.5 0 0 1 41.598 47.039 1.46 1.46 0 0 1 40.729 47.325" data-fill-palette-color="accent"></path></g><g fill="#eae4d6" data-fill-palette-color="accent"><path fill="#000000" d="M31.394 57.492C31.095 57.492 30.793 57.401 30.533 57.213A7.5 7.5 0 0 1 27.443 51.161 7.5 7.5 0 0 1 30.496 45.136 1.47 1.47 0 0 1 32.237 47.505 4.5 4.5 0 0 0 30.383 51.161C30.383 52.609 31.084 53.981 32.258 54.832A1.47 1.47 0 0 1 31.394 57.492" data-fill-palette-color="accent"></path></g><g fill="#eae4d6" data-fill-palette-color="accent"><path fill="#000000" d="M31.942 47.325A1.47 1.47 0 0 1 31.07 44.67 4.5 4.5 0 0 0 32.924 41.014C32.924 39.566 32.223 38.194 31.049 37.343A1.47 1.47 0 0 1 32.774 34.962 7.5 7.5 0 0 1 35.864 41.014 7.5 7.5 0 0 1 32.811 47.039 1.46 1.46 0 0 1 31.942 47.325" data-fill-palette-color="accent"></path></g><g fill="#eae4d6" data-fill-palette-color="accent"><path fill="#000000" d="M65.69 57.492C65.391 57.492 65.089 57.401 64.829 57.213A7.5 7.5 0 0 1 61.739 51.161 7.5 7.5 0 0 1 64.794 45.136 1.47 1.47 0 0 1 66.535 47.505 4.5 4.5 0 0 0 64.68 51.161C64.68 52.609 65.381 53.981 66.555 54.832A1.47 1.47 0 0 1 65.69 57.492" data-fill-palette-color="accent"></path></g><g fill="#eae4d6" data-fill-palette-color="accent"><path fill="#000000" d="M66.239 47.325A1.47 1.47 0 0 1 65.367 44.67 4.5 4.5 0 0 0 67.222 41.014 4.54 4.54 0 0 0 65.345 37.344 1.47 1.47 0 0 1 67.07 34.962 7.5 7.5 0 0 1 70.162 41.014 7.5 7.5 0 0 1 67.107 47.039 1.46 1.46 0 0 1 66.239 47.325" data-fill-palette-color="accent"></path></g><g fill="#eae4d6" data-fill-palette-color="accent"><path fill="#000000" d="M40.181 37.326A1.46 1.46 0 0 1 39.32 37.046 7.5 7.5 0 0 1 36.23 30.994 7.5 7.5 0 0 1 39.283 24.968 1.47 1.47 0 0 1 41.024 27.338 4.5 4.5 0 0 0 39.17 30.994C39.17 32.442 39.871 33.814 41.045 34.665A1.47 1.47 0 0 1 40.181 37.326" data-fill-palette-color="accent"></path></g><g fill="#eae4d6" data-fill-palette-color="accent"><path fill="#000000" d="M48.556 57.492C48.257 57.492 47.955 57.401 47.695 57.213A7.5 7.5 0 0 1 44.605 51.161 7.5 7.5 0 0 1 47.658 45.136 1.47 1.47 0 0 1 49.399 47.505 4.5 4.5 0 0 0 47.545 51.161C47.545 52.609 48.246 53.981 49.42 54.832A1.47 1.47 0 0 1 48.556 57.492" data-fill-palette-color="accent"></path></g><g fill="#eae4d6" data-fill-palette-color="accent"><path fill="#000000" d="M49.104 47.325A1.47 1.47 0 0 1 48.232 44.67 4.5 4.5 0 0 0 50.086 41.014C50.086 39.566 49.385 38.194 48.211 37.343A1.47 1.47 0 0 1 49.936 34.962 7.5 7.5 0 0 1 53.026 41.014 7.5 7.5 0 0 1 49.973 47.039 1.46 1.46 0 0 1 49.104 47.325" data-fill-palette-color="accent"></path></g><g fill="#eae4d6" data-fill-palette-color="accent"><path fill="#000000" d="M48.556 37.326A1.46 1.46 0 0 1 47.695 37.046 7.5 7.5 0 0 1 44.605 30.994 7.5 7.5 0 0 1 47.658 24.968 1.47 1.47 0 0 1 49.399 27.338 4.5 4.5 0 0 0 47.545 30.994C47.545 32.442 48.246 33.814 49.42 34.665A1.47 1.47 0 0 1 48.556 37.326" data-fill-palette-color="accent"></path></g><g fill="#eae4d6" data-fill-palette-color="accent"><path fill="#000000" d="M40.729 27.159A1.47 1.47 0 0 1 39.857 24.504 4.5 4.5 0 0 0 41.711 20.848C41.711 19.4 41.01 18.028 39.836 17.177A1.47 1.47 0 0 1 41.561 14.796 7.5 7.5 0 0 1 44.651 20.848 7.5 7.5 0 0 1 41.598 26.874 1.46 1.46 0 0 1 40.729 27.159" data-fill-palette-color="accent"></path></g><g fill="#eae4d6" data-fill-palette-color="accent"><path fill="#000000" d="M56.499 37.326C56.2 37.326 55.898 37.235 55.638 37.047A7.5 7.5 0 0 1 52.546 30.995 7.5 7.5 0 0 1 55.601 24.969 1.47 1.47 0 0 1 57.342 27.339 4.5 4.5 0 0 0 55.487 30.995 4.54 4.54 0 0 0 57.364 34.665 1.47 1.47 0 0 1 56.499 37.326" data-fill-palette-color="accent"></path></g><g fill="#eae4d6" data-fill-palette-color="accent"><path fill="#000000" d="M57.046 27.159A1.47 1.47 0 0 1 56.174 24.504 4.5 4.5 0 0 0 58.029 20.848 4.54 4.54 0 0 0 56.152 17.178 1.47 1.47 0 0 1 57.877 14.796 7.5 7.5 0 0 1 60.969 20.848 7.5 7.5 0 0 1 57.914 26.874 1.46 1.46 0 0 1 57.046 27.159" data-fill-palette-color="accent"></path></g><g fill="#eae4d6" data-fill-palette-color="accent"><path fill="#000000" d="M70.248 91.54H29.523C25.861 91.54 20.397 88.915 19.412 85.264L3.318 80.711A1.47 1.47 0 1 1 4.118 77.883L21.126 82.694A1.47 1.47 0 0 1 22.195 84.108C22.195 86.191 26.63 88.601 29.522 88.601H70.247C73.141 88.601 77.576 86.191 77.576 84.108A1.47 1.47 0 0 1 78.645 82.694L95.655 77.883A1.467 1.467 0 0 1 97.469 78.897 1.467 1.467 0 0 1 96.455 80.711L80.359 85.264C79.375 88.915 73.911 91.54 70.248 91.54" data-fill-palette-color="accent"></path></g><g fill="#eae4d6" data-fill-palette-color="accent"><path fill="#000000" d="M71.908 86.256H28.158A1.47 1.47 0 1 1 28.158 83.316H71.908A1.47 1.47 0 1 1 71.908 86.256" data-fill-palette-color="accent"></path></g><g fill="#eae4d6" data-fill-palette-color="accent"><path fill="#000000" d="M95.574 80.256H4.077A1.47 1.47 0 1 1 4.077 77.316H95.574A1.47 1.47 0 1 1 95.574 80.256" data-fill-palette-color="accent"></path></g><g fill="#eae4d6" data-fill-palette-color="accent"><path fill="#000000" d="M21.573 74.256A1.47 1.47 0 0 1 20.682 71.616C28.033 66.022 36.402 63.066 44.884 63.066 53.041 63.066 61.093 65.799 68.236 70.982L77.455 64.696A1.471 1.471 0 0 1 79.111 67.126L69.027 74.001A1.47 1.47 0 0 1 67.309 73.956C60.473 68.755 52.719 66.006 44.884 66.006 37.05 66.006 29.297 68.755 22.461 73.956A1.46 1.46 0 0 1 21.573 74.256" data-fill-palette-color="accent"></path></g></svg></g></svg></g></svg></g><defs></defs></svg><rect width="395.52" height="160.78393344423492" fill="none" stroke="none" visibility="hidden"></rect></g></svg></g></svg>